<?xml version="1.0" standalone="no"?>
<!DOCTYPE svg PUBLIC "-//W3C//DTD SVG 20010904//EN"
 "http://www.w3.org/TR/2001/REC-SVG-20010904/DTD/svg10.dtd">
<svg version="1.0" xmlns="http://www.w3.org/2000/svg"
 width="512.000000pt" height="512.000000pt" viewBox="0 0 512.000000 512.000000"
 preserveAspectRatio="xMidYMid meet">

<g transform="translate(0.000000,512.000000) scale(0.100000,-0.100000)"
fill="#000000" stroke="none">
<path d="M1423 5105 c-29 -8 -72 -24 -94 -36 -53 -27 -131 -104 -158 -157 -54
-105 -51 6 -51 -2189 0 -1466 3 -2047 11 -2085 26 -122 101 -218 216 -275 71
-35 81 -37 194 -41 l119 -4 0 -100 c0 -114 14 -155 64 -191 42 -30 123 -31
162 -1 60 44 69 67 72 185 l4 109 593 0 593 0 4 -109 c3 -118 12 -141 72 -185
40 -30 120 -29 165 3 48 35 61 74 61 189 l0 100 118 4 c106 4 124 7 184 35 92
43 151 100 196 191 l37 76 3 2060 c2 1552 0 2075 -9 2116 -33 155 -153 276
-307 309 -37 8 -367 11 -1125 10 -891 0 -1081 -3 -1124 -14z m2217 -302 c16
-9 33 -27 39 -40 16 -36 15 -4052 -1 -4088 -26 -57 24 -55 -1123 -55 -1153 0
-1099 -3 -1124 57 -8 21 -11 542 -9 2054 3 2011 3 2027 23 2049 11 12 29 26
40 31 11 4 494 8 1073 8 966 1 1056 0 1082 -16z"/>
<path d="M1911 4242 c-54 -27 -76 -64 -76 -130 0 -43 6 -65 22 -88 47 -66 28
-64 695 -64 568 0 605 1 638 19 107 56 107 210 0 263 -32 17 -84 18 -640 18
-556 0 -608 -1 -639 -18z"/>
<path d="M1902 3630 c-51 -31 -74 -76 -69 -136 4 -56 26 -92 72 -121 28 -17
66 -18 645 -18 l615 0 36 23 c93 57 91 195 -3 252 -32 19 -52 20 -648 20 -596
0 -616 -1 -648 -20z"/>
<path d="M2525 1250 c-78 -17 -120 -74 -113 -156 7 -88 71 -140 161 -131 39 3
56 11 85 40 30 30 36 44 40 91 3 43 0 62 -16 88 -34 54 -96 81 -157 68z"/>
</g>
</svg>
