<?xml version="1.0" standalone="no"?>
<!DOCTYPE svg PUBLIC "-//W3C//DTD SVG 20010904//EN"
 "http://www.w3.org/TR/2001/REC-SVG-20010904/DTD/svg10.dtd">
<svg version="1.0" xmlns="http://www.w3.org/2000/svg"
 width="512.000000pt" height="512.000000pt" viewBox="0 0 512.000000 512.000000"
 preserveAspectRatio="xMidYMid meet">

<g transform="translate(0.000000,512.000000) scale(0.100000,-0.100000)"
fill="#000000" stroke="none">
<path d="M2225 3570 c-705 -60 -1205 -254 -1336 -517 l-24 -48 0 -465 0 -465
24 -50 c39 -79 159 -191 271 -252 214 -116 487 -193 870 -245 146 -20 208 -23
530 -23 363 0 405 3 664 42 124 18 156 37 156 93 0 85 -36 97 -216 71 -213
-31 -359 -41 -601 -41 -255 0 -414 11 -633 45 -452 69 -800 218 -881 376 -18
36 -19 57 -17 273 l3 235 55 -36 c309 -199 852 -315 1475 -315 614 1 1180 123
1464 316 29 20 55 36 57 36 2 0 4 -107 4 -239 l0 -239 -32 -48 c-18 -27 -55
-65 -83 -86 -60 -46 -194 -115 -293 -153 -40 -15 -79 -34 -87 -42 -40 -39 -24
-113 28 -134 27 -11 40 -10 110 15 240 82 422 211 496 351 l26 50 3 439 c2
370 0 446 -13 491 -76 264 -520 467 -1200 551 -151 18 -666 27 -820 14z m650
-170 c664 -49 1188 -253 1212 -472 22 -192 -376 -391 -942 -472 -373 -54 -883
-49 -1245 10 -347 57 -649 170 -781 292 -64 59 -89 103 -89 156 0 192 410 386
975 461 260 34 606 44 870 25z"/>
<path d="M2585 3300 c-147 -57 -181 -83 -171 -134 7 -37 48 -76 79 -76 12 0
71 18 130 40 l108 40 73 -50 c41 -27 84 -52 98 -55 37 -9 76 11 94 48 14 30
15 38 3 63 -17 36 -208 164 -253 169 -20 3 -76 -13 -161 -45z"/>
<path d="M1685 3114 c-142 -55 -185 -84 -185 -125 0 -36 20 -59 128 -145 85
-68 113 -84 140 -84 46 0 68 14 81 51 14 41 -3 79 -52 117 l-37 30 71 28 c77
30 109 61 109 106 0 41 -40 78 -82 77 -18 0 -96 -25 -173 -55z"/>
<path d="M3362 3123 c-17 -7 -42 -57 -42 -84 0 -14 18 -39 47 -66 25 -24 44
-45 42 -46 -2 -2 -37 -16 -77 -31 -77 -30 -92 -45 -92 -99 0 -42 34 -77 77
-77 32 0 281 90 321 116 33 21 46 61 31 96 -10 26 -47 58 -182 161 -46 35 -87
45 -125 30z"/>
<path d="M2191 2734 c-31 -39 -27 -87 8 -116 58 -49 209 -138 234 -138 40 0
279 91 304 116 28 29 30 73 3 107 -33 41 -59 41 -178 -3 -60 -22 -112 -40
-115 -40 -3 0 -41 22 -84 50 -93 60 -139 66 -172 24z"/>
</g>
</svg>
