<?xml version="1.0" standalone="no"?>
<!DOCTYPE svg PUBLIC "-//W3C//DTD SVG 20010904//EN"
 "http://www.w3.org/TR/2001/REC-SVG-20010904/DTD/svg10.dtd">
<svg version="1.0" xmlns="http://www.w3.org/2000/svg"
 width="512.000000pt" height="512.000000pt" viewBox="0 0 512.000000 512.000000"
 preserveAspectRatio="xMidYMid meet">

<g transform="translate(0.000000,512.000000) scale(0.100000,-0.100000)"
fill="#000000" stroke="none">
<path d="M1625 3615 c-742 -432 -1358 -794 -1367 -806 -17 -20 -18 -59 -18
-505 0 -449 1 -485 18 -502 34 -34 1864 -1084 1882 -1079 9 2 604 345 1321
762 717 417 1323 769 1347 783 76 43 72 11 72 548 0 445 -1 483 -17 502 -16
17 -1002 591 -1044 607 -9 3 -26 -3 -39 -13 -52 -42 -44 -48 454 -336 256
-147 472 -273 481 -280 12 -9 -224 -150 -1266 -756 -705 -410 -1289 -749
-1299 -753 -13 -7 -152 69 -566 308 -302 174 -694 401 -871 503 l-323 186 123
71 c67 40 289 169 492 287 1208 702 1456 846 1702 990 150 87 277 158 282 158
5 0 56 -27 113 -60 56 -33 112 -60 123 -60 44 0 61 53 28 82 -28 24 -251 148
-265 148 -7 0 -620 -354 -1363 -785z m3155 -833 l0 -418 -1294 -752 c-711
-414 -1297 -752 -1300 -752 -3 0 -5 187 -4 417 l3 416 105 62 c58 34 609 355
1225 713 616 357 1151 669 1190 691 38 23 71 41 72 41 2 0 3 -188 3 -418z
m-3540 -600 l845 -488 -4 -415 c-2 -228 -5 -415 -6 -417 -1 -1 -391 222 -866
496 l-864 499 -3 422 -2 422 27 -15 c16 -9 408 -235 873 -504z"/>
<path d="M4219 2697 c-124 -73 -234 -138 -243 -146 -24 -20 -24 -361 0 -385
21 -21 43 -20 79 4 39 26 53 25 57 -1 6 -45 40 -41 144 18 55 30 101 57 104
60 2 2 7 27 10 56 5 51 5 52 69 89 35 20 68 43 72 50 5 7 9 90 9 185 0 185 -5
204 -53 202 -12 0 -124 -60 -248 -132z m201 -101 l0 -104 -67 -38 -68 -39 -5
-53 c-4 -46 -9 -55 -38 -72 -40 -24 -42 -25 -42 -2 0 44 -45 54 -98 22 -18
-11 -35 -20 -37 -20 -3 0 -5 46 -5 103 l1 102 177 102 c97 56 178 102 180 102
1 1 2 -46 2 -103z"/>
<path d="M3461 2255 c-128 -74 -240 -140 -247 -146 -11 -9 -14 -50 -14 -189 0
-159 2 -179 18 -193 25 -23 38 -21 89 8 41 25 43 25 43 6 0 -25 37 -52 59 -43
9 4 57 29 105 57 92 52 106 69 106 128 0 29 7 36 68 73 l67 40 3 177 c3 188
-3 217 -41 217 -12 0 -127 -61 -256 -135z m199 -99 l0 -104 -70 -41 -70 -42 0
-49 c0 -44 -3 -50 -34 -69 -41 -26 -46 -26 -46 -3 0 44 -46 54 -95 22 -16 -11
-34 -20 -38 -20 -4 0 -6 46 -5 101 l3 102 175 102 c96 57 176 103 178 104 1 1
2 -46 2 -103z"/>
<path d="M2696 1811 c-131 -76 -242 -145 -247 -152 -5 -8 -9 -88 -9 -179 0
-217 13 -239 108 -185 40 22 42 23 42 5 0 -11 11 -27 25 -36 24 -16 28 -15
125 40 55 32 104 66 110 76 5 10 10 36 10 57 1 36 4 40 68 78 l67 40 3 184 c3
193 -1 211 -42 211 -11 0 -128 -63 -260 -139z m214 -99 l0 -97 -37 -20 c-20
-11 -54 -32 -75 -48 -34 -24 -38 -31 -38 -72 0 -40 -4 -47 -32 -65 l-32 -19
-18 29 c-21 35 -35 37 -88 10 -22 -11 -42 -20 -45 -20 -3 0 -4 45 -3 101 l3
101 170 98 c94 55 176 99 183 100 9 0 12 -26 12 -98z"/>
<path d="M441 2216 c-7 -8 -11 -27 -9 -41 3 -23 27 -40 168 -122 140 -81 169
-94 190 -86 40 14 39 55 -2 86 -52 38 -302 177 -320 177 -8 0 -21 -6 -27 -14z"/>
<path d="M442 1998 c-17 -17 -15 -53 6 -70 9 -9 86 -55 170 -103 149 -85 153
-87 177 -71 28 19 32 47 10 69 -25 25 -313 187 -333 187 -10 0 -23 -5 -30 -12z"/>
<path d="M3380 4136 c-28 -35 -8 -59 100 -123 58 -35 113 -63 122 -63 27 0 52
44 39 68 -12 23 -201 132 -229 132 -11 0 -25 -7 -32 -14z"/>
<path d="M3157 3265 l-228 -133 -77 44 c-87 49 -116 54 -133 22 -20 -36 -139
-401 -139 -424 0 -50 8 -50 363 -10 370 42 403 48 412 75 9 31 -5 49 -61 82
-30 17 -54 32 -54 33 0 2 84 52 188 111 236 137 242 141 242 170 0 27 -16 40
-146 113 -50 29 -102 52 -115 51 -13 0 -127 -60 -252 -134z m309 4 c30 -17 54
-32 54 -34 0 -2 -94 -58 -210 -125 -124 -72 -212 -129 -215 -141 -8 -24 10
-56 36 -64 11 -4 18 -10 14 -13 -10 -11 -440 -59 -443 -50 -3 7 75 244 84 256
1 2 30 -12 64 -32 33 -20 69 -36 78 -36 9 0 121 60 247 134 127 74 232 135
234 135 2 1 28 -13 57 -30z"/>
<path d="M2113 3300 c-182 -22 -319 -43 -328 -50 -31 -26 -18 -58 40 -95 30
-20 55 -37 55 -39 0 -1 -93 -56 -206 -122 -220 -127 -244 -148 -208 -185 29
-28 224 -139 246 -139 10 0 111 54 224 120 113 66 218 127 233 135 27 13 32
12 104 -30 79 -47 108 -54 124 -32 6 6 43 107 83 223 84 248 84 255 -3 253
-29 -1 -193 -18 -364 -39z m270 -195 l-45 -135 -62 35 c-35 19 -72 35 -83 35
-11 0 -124 -61 -252 -135 l-231 -134 -56 34 -57 33 54 31 c400 227 414 238
350 291 l-31 26 213 26 c116 14 220 26 229 27 14 1 9 -20 -29 -134z"/>
</g>
</svg>
